<svg xmlns="http://www.w3.org/2000/svg" width="24" height="24" viewBox="0 0 24 24" fill="none" stroke="white" stroke-width="3" stroke-linecap="round" stroke-linejoin="round" class="feather feather-google-scholar">
  <path d="M3 4.5C3 3.67 3.67 3 4.5 3H19.5C20.33 3 21 3.67 21 4.5V19.5C21 20.33 20.33 21 19.5 21H4.5C3.67 21 3 20.33 3 19.5V4.5ZM9.517 6.954C9.517 5.967 8.79 5.239 7.803 5.239C6.813 5.239 6.085 5.967 6.085 6.954V11.046C6.085 12.03 6.813 12.757 7.803 12.757C8.79 12.757 9.517 12.03 9.517 11.046V6.954ZM15.915 5.239C16.903 5.239 17.63 5.967 17.63 6.954V9.63L12.343 14.926V9.631C12.343 8.647 11.616 7.919 10.63 7.919C9.645 7.919 8.916 8.646 8.916 9.63V14.926L3.63 9.63V6.954C3.63 5.967 4.357 5.239 5.343 5.239C6.332 5.239 7.06 5.967 7.06 6.954V11.217L12.343 16.504V19.177C12.343 20.163 13.07 20.892 14.056 20.892C15.044 20.892 15.77 20.163 15.77 19.177V14.926L21.056 9.63V6.954C21.056 5.967 20.328 5.239 19.342 5.239C18.354 5.239 17.63 5.967 17.63 6.954V10.672C17.63 11.656 18.354 12.384 19.342 12.384C20.328 12.384 21.056 11.656 21.056 10.672V6.954C21.056 5.967 20.328 5.239 19.342 5.239C18.354 5.239 17.63 5.967 17.63 6.954V9.137L12.343 14.426V7.919C12.343 6.932 11.616 6.204 10.63 6.204C9.645 6.204 8.916 6.932 8.916 7.919V14.426L3.63 9.137V6.954C3.63 5.967 2.903 5.239 1.917 5.239C0.93 5.239 0.202 5.967 0.202 6.954V17.046C0.202 18.03 0.93 18.757 1.917 18.757C2.903 18.757 3.63 18.03 3.63 17.046V9.585L10.63 16.587L17.63 9.585V17.046C17.63 18.03 18.354 18.757 19.342 18.757C20.328 18.757 21.056 18.03 21.056 17.046V6.954C21.056 5.967 20.328 5.239 19.342 5.239Z" />
</svg>
