<svg xmlns="http://www.w3.org/2000/svg" width="24" height="24" viewBox="0 0 24 24" fill="none" stroke="white" stroke-width="3" stroke-linecap="round" stroke-linejoin="round" class="feather feather-linkedin">
  <path d="M2 6C2 4.34315 3.34315 3 5 3H19C20.6569 3 22 4.34315 22 6V18C22 19.6569 20.6569 21 19 21H5C3.34315 21 2 19.6569 2 18V6Z"/>
  <path d="M8 16H11V8H8V16Z"/>
  <path d="M9.5 4C10.8807 4 12 5.11929 12 6.5V16.5C12 17.8807 10.8807 19 9.5 19C8.11929 19 7 17.8807 7 16.5V6.5C7 5.11929 8.11929 4 9.5 4Z"/>
</svg>
